# xmcd
#
# Track frame offsets: 
#        183
#        11208
#        21570
#        30915
#        41555
#        51630
#        60578
#        70245
#        79345
#        89163
#        97848
#        107968
#        118783
#        132328
#
# Disc length: 1915 seconds
#
# Revision: 7
# Processed by: cddbd v1.5.2PL0 Copyright (c) Steve Scherf et al.
# Submitted via: ExactAudioCopyFreeDBPlugin 1.0
#
DISCID=c807790e
DTITLE=Little Richard - Long Tall Sally
DYEAR=1992
DGENRE=Blues
TTITLE0=Whole Lotta Shakin' Goin' On
TTITLE1=Money Honey
TTITLE2=Good Golly Miss Molly
TTITLE3=Trutti Frutti
TTITLE4=Lucille
TTITLE5=Rip It Up
TTITLE6=She's Got It
TTITLE7=Long Tall Sally
TTITLE8=Keep A Knockin'
TTITLE9=Jenny Jenny
TTITLE10=Send Me Some Lovin'
TTITLE11=Slippin' And Slidin'
TTITLE12=The Girl Can't Help It
TTITLE13=Babyface
EXTD=ID3G: 0
EXTT0=
EXTT1=
EXTT2=
EXTT3=
EXTT4=
EXTT5=
EXTT6=
EXTT7=
EXTT8=
EXTT9=
EXTT10=
EXTT11=
EXTT12=
EXTT13=
PLAYORDER=
